<svg width="46" height="46" viewBox="0 0 46 46" fill="none" xmlns="http://www.w3.org/2000/svg">
<mask id="mask0" mask-type="alpha" maskUnits="userSpaceOnUse" x="0" y="0" width="46" height="46">
<circle cx="23" cy="23" r="23" fill="#0BCAD4"/>
</mask>
<g mask="url(#mask0)">
<circle cx="23" cy="23" r="23" fill="#0BCAD4"/>
<ellipse cx="23" cy="33.5" rx="9" ry="2.5" fill="#0AA8B0"/>
</g>
<path d="M23.5 12.7484C23.3011 12.7484 23.1103 12.6694 22.9697 12.5288C22.8291 12.3882 22.7501 12.1974 22.7501 11.9985V9.74878C22.7504 9.55009 22.8295 9.35963 22.9701 9.21924C23.1107 9.07885 23.3013 9 23.5 9C23.6987 9 23.8892 9.07885 24.0299 9.21924C24.1705 9.35963 24.2496 9.55009 24.2499 9.74878V11.9985C24.2499 12.097 24.2305 12.1945 24.1928 12.2855C24.1551 12.3765 24.0999 12.4592 24.0302 12.5288C23.9606 12.5984 23.8779 12.6537 23.787 12.6914C23.696 12.729 23.5985 12.7484 23.5 12.7484V12.7484Z" fill="#F5D844"/>
<path d="M23.5 29.9966C23.4015 29.9966 23.304 29.9772 23.213 29.9395C23.122 29.9018 23.0393 29.8466 22.9697 29.7769C22.9001 29.7073 22.8448 29.6246 22.8071 29.5336C22.7695 29.4426 22.7501 29.3451 22.7501 29.2466V26.9969C22.7499 26.8983 22.7692 26.8007 22.8068 26.7096C22.8444 26.6184 22.8996 26.5356 22.9693 26.4659C23.0389 26.3961 23.1217 26.3408 23.2127 26.303C23.3038 26.2653 23.4014 26.2458 23.5 26.2458C23.5986 26.2458 23.6962 26.2653 23.7872 26.303C23.8783 26.3408 23.961 26.3961 24.0307 26.4659C24.1003 26.5356 24.1555 26.6184 24.1931 26.7096C24.2308 26.8007 24.25 26.8983 24.2499 26.9969V29.2466C24.2499 29.3451 24.2305 29.4426 24.1928 29.5336C24.1551 29.6246 24.0999 29.7073 24.0303 29.7769C23.9606 29.8466 23.878 29.9018 23.787 29.9395C23.696 29.9772 23.5985 29.9966 23.5 29.9966V29.9966Z" fill="#F5D844"/>
<path d="M28.8029 14.9448C28.6546 14.9448 28.5096 14.9008 28.3863 14.8184C28.2629 14.736 28.1668 14.6188 28.1101 14.4818C28.0533 14.3448 28.0385 14.194 28.0674 14.0485C28.0963 13.9031 28.1677 13.7694 28.2726 13.6646L29.8634 12.0738C30.0041 11.9333 30.1948 11.8544 30.3936 11.8545C30.5924 11.8545 30.7831 11.9335 30.9236 12.0741C31.0642 12.2147 31.1432 12.4054 31.1433 12.6042C31.1433 12.803 31.0644 12.9937 30.9239 13.1344L29.3331 14.7251C29.2636 14.7949 29.1809 14.8502 29.0899 14.8879C28.9989 14.9255 28.9014 14.9449 28.8029 14.9448V14.9448Z" fill="#F5D844"/>
<path d="M16.6064 27.1412C16.4581 27.1412 16.3131 27.0973 16.1898 27.0149C16.0665 26.9325 15.9704 26.8153 15.9136 26.6783C15.8568 26.5413 15.842 26.3905 15.8709 26.245C15.8998 26.0996 15.9713 25.966 16.0761 25.8611L17.6669 24.2703C17.8075 24.1296 17.9983 24.0506 18.1972 24.0506C18.396 24.0506 18.5868 24.1296 18.7274 24.2703C18.8681 24.4109 18.9471 24.6016 18.9471 24.8005C18.9471 24.9994 18.8681 25.1902 18.7275 25.3308L17.1367 26.9216C17.0671 26.9913 16.9845 27.0466 16.8935 27.0843C16.8025 27.122 16.7049 27.1414 16.6064 27.1412V27.1412Z" fill="#F5D844"/>
<path d="M33.249 20.2476H30.9992C30.8005 20.2473 30.6101 20.1682 30.4697 20.0276C30.3293 19.887 30.2504 19.6964 30.2504 19.4977C30.2504 19.299 30.3293 19.1084 30.4697 18.9678C30.6101 18.8272 30.8005 18.7481 30.9992 18.7478H33.249C33.3475 18.7476 33.4452 18.7669 33.5363 18.8045C33.6274 18.8422 33.7102 18.8974 33.78 18.967C33.8497 19.0367 33.9051 19.1194 33.9428 19.2105C33.9806 19.3015 34 19.3991 34 19.4977C34 19.5963 33.9806 19.6939 33.9428 19.785C33.9051 19.876 33.8497 19.9587 33.78 20.0284C33.7102 20.098 33.6274 20.1532 33.5363 20.1909C33.4452 20.2285 33.3475 20.2478 33.249 20.2476V20.2476Z" fill="#F5D844"/>
<path d="M16.0008 20.2476H13.7511C13.6525 20.2478 13.5548 20.2285 13.4637 20.1909C13.3726 20.1532 13.2898 20.098 13.22 20.0284C13.1503 19.9587 13.0949 19.876 13.0572 19.785C13.0194 19.6939 13 19.5963 13 19.4977C13 19.3991 13.0194 19.3015 13.0572 19.2105C13.0949 19.1194 13.1503 19.0367 13.22 18.967C13.2898 18.8974 13.3726 18.8422 13.4637 18.8045C13.5548 18.7669 13.6525 18.7476 13.7511 18.7478H16.0008C16.1995 18.7481 16.39 18.8272 16.5303 18.9678C16.6707 19.1084 16.7496 19.299 16.7496 19.4977C16.7496 19.6964 16.6707 19.887 16.5303 20.0276C16.39 20.1682 16.1995 20.2473 16.0008 20.2476H16.0008Z" fill="#F5D844"/>
<path d="M30.3936 27.1412C30.2951 27.1414 30.1976 27.122 30.1066 27.0843C30.0156 27.0466 29.9329 26.9913 29.8634 26.9216L28.2726 25.3308C28.2028 25.2612 28.1475 25.1785 28.1097 25.0875C28.0719 24.9965 28.0524 24.8989 28.0524 24.8004C28.0523 24.7018 28.0717 24.6042 28.1094 24.5132C28.1471 24.4221 28.2023 24.3394 28.272 24.2697C28.3417 24.2 28.4244 24.1448 28.5155 24.1071C28.6065 24.0694 28.7041 24.05 28.8027 24.0501C28.9012 24.0501 28.9988 24.0696 29.0898 24.1074C29.1808 24.1452 29.2635 24.2005 29.3331 24.2703L30.9239 25.8611C31.0288 25.966 31.1002 26.0996 31.1291 26.245C31.1581 26.3905 31.1432 26.5413 31.0865 26.6783C31.0297 26.8153 30.9336 26.9325 30.8103 27.0149C30.6869 27.0973 30.542 27.1413 30.3936 27.1413V27.1412Z" fill="#F5D844"/>
<path d="M18.1972 14.9448C18.0987 14.9449 18.0011 14.9256 17.9101 14.8879C17.8191 14.8502 17.7365 14.7949 17.6669 14.7251L16.0762 13.1344C16.0065 13.0647 15.9513 12.9821 15.9136 12.8911C15.8759 12.8001 15.8565 12.7026 15.8565 12.6041C15.8565 12.5056 15.8759 12.4081 15.9136 12.3171C15.9513 12.2261 16.0065 12.1434 16.0762 12.0738C16.1458 12.0042 16.2285 11.9489 16.3195 11.9112C16.4104 11.8736 16.508 11.8542 16.6064 11.8542C16.7049 11.8542 16.8024 11.8736 16.8934 11.9112C16.9844 11.9489 17.0671 12.0042 17.1367 12.0738L18.7275 13.6646C18.8323 13.7695 18.9038 13.9031 18.9327 14.0486C18.9616 14.194 18.9468 14.3448 18.89 14.4818C18.8333 14.6189 18.7371 14.736 18.6138 14.8184C18.4905 14.9008 18.3455 14.9448 18.1972 14.9448V14.9448Z" fill="#F5D844"/>
<path d="M23.5001 23.9972C22.6101 23.9972 21.7402 23.7333 21.0003 23.2389C20.2603 22.7445 19.6836 22.0418 19.3431 21.2196C19.0025 20.3974 18.9134 19.4927 19.087 18.6199C19.2606 17.7471 19.6892 16.9453 20.3184 16.3161C20.9477 15.6868 21.7494 15.2583 22.6222 15.0847C23.4951 14.911 24.3998 15.0001 25.2219 15.3407C26.0441 15.6813 26.7468 16.258 27.2413 16.9979C27.7357 17.7379 27.9996 18.6078 27.9996 19.4977C27.9982 20.6906 27.5237 21.8343 26.6802 22.6778C25.8367 23.5214 24.693 23.9959 23.5001 23.9972Z" fill="#F5D844"/>
</svg>
