<svg width="46" height="46" viewBox="0 0 46 46" fill="none" xmlns="http://www.w3.org/2000/svg">
<mask id="mask0" mask-type="alpha" maskUnits="userSpaceOnUse" x="0" y="0" width="46" height="46">
<circle cx="23" cy="23" r="23" fill="#0BCAD4"/>
</mask>
<g mask="url(#mask0)">
<circle cx="23" cy="23" r="23" fill="#0BCAD4"/>
<ellipse cx="23" cy="33.5" rx="9" ry="2.5" fill="#0AA8B0"/>
</g>
<path d="M33.1733 19.9922L32.5702 19.9075C32.1952 17.6997 31.1412 15.6702 29.5603 14.1119C27.9794 12.5536 25.9534 11.5469 23.7743 11.2372C24.4297 10.9113 24.9573 10.369 25.2711 9.69854C25.5849 9.02811 25.6664 8.26916 25.5022 7.54553C25.338 6.82189 24.9379 6.17626 24.3671 5.71397C23.7963 5.25167 23.0885 5 22.3592 5C21.63 5 20.9222 5.25167 20.3514 5.71397C19.7806 6.17626 19.3805 6.82189 19.2163 7.54553C19.0521 8.26916 19.1336 9.02811 19.4474 9.69854C19.7612 10.369 20.2888 10.9113 20.9442 11.2372C15.8992 11.9421 12 16.3598 12 21.6882C12.0031 24.4852 13.0955 27.1667 15.0375 29.1445C16.9795 31.1223 19.6126 32.2348 22.3591 32.2381C27.4754 32.2381 31.7367 28.4411 32.5702 23.4689L33.1733 23.3841C33.4021 23.3512 33.6116 23.2354 33.7634 23.058C33.9152 22.8806 33.9992 22.6535 34 22.4182V20.9582C33.9992 20.7229 33.9152 20.4958 33.7634 20.3184C33.6116 20.141 33.4021 20.0252 33.1733 19.9922ZM23.426 9.27247C23.351 9.12955 23.2393 9.00999 23.1029 8.92653C22.9665 8.84307 22.8105 8.79881 22.6513 8.79847H22.0669C21.9077 8.79881 21.7517 8.84306 21.6153 8.92653C21.4789 9.00999 21.3673 9.12955 21.2923 9.27247C21.1045 9.06202 20.9809 8.80057 20.9363 8.5199C20.8917 8.23922 20.9281 7.95139 21.0411 7.69139C21.1541 7.43138 21.3388 7.2104 21.5728 7.05528C21.8067 6.90016 22.0799 6.81758 22.3591 6.81758C22.6383 6.81758 22.9115 6.90016 23.1455 7.05528C23.3795 7.2104 23.5642 7.43138 23.6772 7.69139C23.7902 7.95139 23.8266 8.23922 23.782 8.5199C23.7374 8.80057 23.6137 9.06202 23.426 9.27247ZM21.7478 9.67392C21.753 9.5913 21.7889 9.51377 21.8481 9.45706C21.9073 9.40036 21.9855 9.36872 22.0669 9.36858H22.6513C22.7326 9.36872 22.8108 9.40035 22.8701 9.45705C22.9294 9.51376 22.9652 9.59129 22.9704 9.67392L23.0615 11.163C22.8293 11.1471 22.5952 11.1383 22.3591 11.1383C22.123 11.1383 21.8889 11.1472 21.6567 11.163L21.7478 9.67392ZM19.6931 8.28511C19.6928 7.8036 19.8183 7.33067 20.0566 6.9148C20.2949 6.49893 20.6376 6.15509 21.0494 5.91854C21.4612 5.68199 21.9274 5.56123 22.4002 5.56865C22.8729 5.57607 23.3352 5.7114 23.7397 5.96076C24.1442 6.21012 24.4763 6.56455 24.7019 6.9877C24.9275 7.41085 25.0386 7.88749 25.0237 8.36876C25.0088 8.85004 24.8685 9.31862 24.6172 9.72647C24.3659 10.1343 24.0125 10.4668 23.5934 10.6897L23.5467 9.92492C23.8859 9.67024 24.1375 9.31302 24.2656 8.90418C24.3937 8.49533 24.3918 8.05574 24.2602 7.64805C24.1286 7.24037 23.8739 6.8854 23.5325 6.63376C23.1912 6.38212 22.7805 6.24664 22.3591 6.24664C21.9377 6.24664 21.5271 6.38212 21.1857 6.63376C20.8443 6.8854 20.5897 7.24037 20.4581 7.64805C20.3264 8.05574 20.3246 8.49533 20.4527 8.90418C20.5808 9.31302 20.8324 9.67024 21.1715 9.92492L21.1247 10.6897C20.6942 10.459 20.3336 10.1133 20.0814 9.68967C19.8292 9.26605 19.695 8.7805 19.6931 8.28511ZM22.3591 31.668C20.4209 31.668 18.5263 31.0827 16.9147 29.9861C15.3032 28.8895 14.0471 27.3309 13.3054 25.5073C12.5637 23.6837 12.3697 21.6771 12.7478 19.7413C13.1259 17.8054 14.0592 16.0271 15.4297 14.6314C16.8002 13.2357 18.5463 12.2853 20.4473 11.9002C22.3482 11.5151 24.3186 11.7128 26.1092 12.4681C27.8999 13.2234 29.4304 14.5026 30.5072 16.1437C31.584 17.7849 32.1587 19.7144 32.1587 21.6882C32.1558 24.3341 31.1224 26.8708 29.2852 28.7417C27.4481 30.6126 24.9572 31.665 22.3591 31.668ZM33.4401 22.4182C33.4398 22.5159 33.4049 22.6102 33.3419 22.6839C33.2788 22.7576 33.1918 22.8057 33.0968 22.8194L32.652 22.8819C32.741 22.0887 32.741 21.2877 32.652 20.4944L33.0968 20.5569C33.1918 20.5706 33.2788 20.6187 33.3418 20.6924C33.4049 20.7661 33.4398 20.8605 33.4401 20.9582V22.4182Z" fill="#DB4242"/>
<path d="M21.9524 12.3333C20.1912 12.3333 18.4695 12.8556 17.0052 13.8341C15.5408 14.8125 14.3994 16.2033 13.7254 17.8304C13.0515 19.4575 12.8751 21.248 13.2187 22.9753C13.5623 24.7027 14.4104 26.2894 15.6558 27.5347C16.9011 28.7801 18.4878 29.6282 20.2151 29.9717C21.9425 30.3153 23.7329 30.139 25.3601 29.465C26.9872 28.791 28.3779 27.6497 29.3564 26.1853C30.3349 24.7209 30.8571 22.9993 30.8571 21.2381C30.8545 18.8772 29.9154 16.6138 28.246 14.9444C26.5767 13.275 24.3132 12.336 21.9524 12.3333V12.3333ZM21.9524 29.5805C20.3024 29.5805 18.6895 29.0912 17.3176 28.1745C15.9457 27.2579 14.8764 25.955 14.245 24.4306C13.6136 22.9062 13.4484 21.2288 13.7703 19.6106C14.0922 17.9923 14.8867 16.5058 16.0534 15.3391C17.2201 14.1724 18.7066 13.3779 20.3249 13.056C21.9431 12.7341 23.6205 12.8993 25.1449 13.5307C26.6692 14.1621 27.9721 15.2314 28.8888 16.6033C29.8055 17.9752 30.2948 19.5881 30.2948 21.2381C30.2922 23.4499 29.4125 25.5703 27.8486 27.1343C26.2846 28.6982 24.1641 29.578 21.9524 29.5805V29.5805Z" fill="#DB4242"/>
<path d="M23.7108 20.1362L17.6932 16.5683C17.6369 16.5344 17.5693 16.5191 17.5019 16.5251C17.4345 16.5311 17.3714 16.5579 17.3236 16.601C17.2757 16.6442 17.246 16.7009 17.2395 16.7616C17.2329 16.8223 17.25 16.8831 17.2878 16.9337L19.525 19.9221L21.2577 22.3399L27.2585 25.9075C27.3148 25.9416 27.3825 25.957 27.45 25.9512C27.5175 25.9453 27.5807 25.9185 27.6286 25.8753C27.6766 25.8322 27.7064 25.7753 27.7129 25.7146C27.7195 25.6538 27.7023 25.5929 27.6644 25.5422L23.7108 20.1362ZM19.7014 19.2165L18.6103 17.7591L20.2191 18.7345C20.0046 18.8539 19.8266 19.0195 19.7012 19.2164L19.7014 19.2165ZM21.7225 21.9162L20.0855 19.7295C20.2106 19.3771 20.4385 19.1682 20.7919 19.082L23.2294 20.56L26.3416 24.7171L21.7225 21.9162Z" fill="#DB4242"/>
<path d="M24.8301 15.4494C24.8814 15.4667 24.9365 15.4758 24.9922 15.4762C25.0479 15.4766 25.1031 15.4682 25.1548 15.4516C25.2064 15.435 25.2534 15.4104 25.2931 15.3794C25.3328 15.3483 25.3644 15.3114 25.3861 15.2706L25.5879 14.8922C25.6298 14.8102 25.6294 14.7185 25.5868 14.6367C25.5442 14.5549 25.4628 14.4898 25.3602 14.4553C25.2577 14.4207 25.1421 14.4197 25.0386 14.4523C24.935 14.4848 24.8517 14.5485 24.8067 14.6294L24.605 15.0078C24.5833 15.0485 24.5719 15.0923 24.5714 15.1365C24.571 15.1807 24.5815 15.2246 24.6024 15.2656C24.6233 15.3066 24.6542 15.344 24.6933 15.3755C24.7323 15.407 24.7788 15.4322 24.8301 15.4494V15.4494Z" fill="#DB4242"/>
<path d="M20.1229 27.0266C20.0195 26.9919 19.903 26.9911 19.799 27.0245C19.695 27.0579 19.6119 27.1227 19.5681 27.2046L19.3668 27.5813C19.3452 27.6218 19.3338 27.6654 19.3333 27.7095C19.3329 27.7535 19.3434 27.7972 19.3642 27.838C19.3851 27.8789 19.4159 27.9161 19.4549 27.9475C19.4939 27.9789 19.5403 28.0039 19.5914 28.021C19.6426 28.0382 19.6975 28.0473 19.7531 28.0476C19.8087 28.048 19.8638 28.0396 19.9153 28.0231C19.9668 28.0066 20.0137 27.9821 20.0533 27.9512C20.0929 27.9203 20.1245 27.8836 20.1461 27.843L20.3475 27.4662C20.3912 27.3843 20.3921 27.292 20.35 27.2095C20.3079 27.1271 20.2262 27.0613 20.1229 27.0266V27.0266Z" fill="#DB4242"/>
<path d="M27.7388 19.4004C27.7553 19.4523 27.7796 19.4995 27.8104 19.5394C27.8413 19.5794 27.878 19.6111 27.9185 19.633C27.959 19.6548 28.0024 19.6663 28.0464 19.6667C28.0904 19.6671 28.134 19.6565 28.1747 19.6354L28.5529 19.4404C28.6352 19.3979 28.7008 19.3156 28.7354 19.2115C28.77 19.1074 28.7708 18.99 28.7374 18.8853C28.7041 18.7805 28.6394 18.6969 28.5577 18.6528C28.4759 18.6087 28.3837 18.6078 28.3015 18.6503L27.9232 18.8453C27.8409 18.8878 27.7753 18.9701 27.7407 19.0742C27.7062 19.1783 27.7055 19.2956 27.7388 19.4004Z" fill="#DB4242"/>
<path d="M25.3942 27.2118C25.3735 27.1707 25.3427 27.1332 25.3035 27.1015C25.2642 27.0698 25.2174 27.0445 25.1656 27.0271C25.1139 27.0097 25.0583 27.0005 25.002 27C24.9457 26.9996 24.8898 27.0079 24.8376 27.0245C24.7854 27.0411 24.738 27.0657 24.6979 27.0967C24.6579 27.1278 24.6261 27.1648 24.6044 27.2056C24.5827 27.2464 24.5715 27.2902 24.5714 27.3344C24.5714 27.3786 24.5825 27.4224 24.6041 27.4632L24.7991 27.8414C24.8423 27.9229 24.9246 27.9877 25.0283 28.0217C25.132 28.0558 25.2487 28.0563 25.3528 28.0231C25.457 27.99 25.5403 27.9259 25.5846 27.8448C25.6288 27.7637 25.6305 27.6721 25.5893 27.59L25.3942 27.2118Z" fill="#DB4242"/>
<path d="M19.5611 15.2699C19.6042 15.3514 19.6866 15.4163 19.7903 15.4503C19.894 15.4843 20.0106 15.4848 20.1148 15.4517C20.2189 15.4186 20.3022 15.3545 20.3465 15.2733C20.3907 15.1922 20.3924 15.1006 20.3512 15.0186L20.156 14.6404C20.1353 14.5993 20.1045 14.5618 20.0653 14.5301C20.0261 14.4984 19.9792 14.4731 19.9275 14.4556C19.8757 14.4382 19.8201 14.429 19.7638 14.4286C19.7075 14.4281 19.6517 14.4365 19.5995 14.4531C19.5473 14.4697 19.4998 14.4942 19.4598 14.5253C19.4198 14.5564 19.388 14.5934 19.3663 14.6342C19.3446 14.675 19.3334 14.7188 19.3333 14.763C19.3333 14.8072 19.3444 14.851 19.366 14.8918L19.5611 15.2699Z" fill="#DB4242"/>
<path d="M27.7143 21.2382C27.7143 21.3771 27.7524 21.5103 27.8202 21.6085C27.8879 21.7067 27.9798 21.7618 28.0756 21.7618H29.4421C29.4901 21.763 29.5377 21.7503 29.5822 21.7245C29.6268 21.6988 29.6673 21.6604 29.7015 21.6116C29.7357 21.5629 29.7629 21.5047 29.7814 21.4406C29.8 21.3765 29.8095 21.3076 29.8095 21.2381C29.8095 21.1686 29.8 21.0997 29.7814 21.0356C29.7629 20.9715 29.7357 20.9133 29.7015 20.8646C29.6673 20.8158 29.6268 20.7774 29.5822 20.7516C29.5377 20.7258 29.4901 20.7132 29.4421 20.7144H28.0756C27.9798 20.7144 27.8879 20.7695 27.8201 20.8678C27.7524 20.966 27.7143 21.0992 27.7143 21.2382Z" fill="#DB4242"/>
<path d="M16.8718 20.7144H15.5092C15.4614 20.7132 15.4139 20.7258 15.3695 20.7516C15.3251 20.7774 15.2847 20.8158 15.2506 20.8646C15.2165 20.9133 15.1894 20.9715 15.1709 21.0356C15.1524 21.0997 15.1429 21.1686 15.1429 21.2381C15.1429 21.3076 15.1524 21.3765 15.1709 21.4406C15.1894 21.5047 15.2165 21.5629 15.2506 21.6116C15.2847 21.6604 15.3251 21.6988 15.3695 21.7245C15.4139 21.7503 15.4614 21.763 15.5092 21.7618H16.8718C16.9196 21.763 16.9671 21.7503 17.0115 21.7245C17.0559 21.6988 17.0963 21.6604 17.1304 21.6116C17.1645 21.5629 17.1916 21.5047 17.2101 21.4406C17.2286 21.3765 17.2381 21.3076 17.2381 21.2381C17.2381 21.1686 17.2286 21.0997 17.2101 21.0356C17.1916 20.9715 17.1645 20.9133 17.1304 20.8646C17.0963 20.8158 17.0559 20.7774 17.0115 20.7516C16.9671 20.7258 16.9196 20.7132 16.8718 20.7144V20.7144Z" fill="#DB4242"/>
<path d="M27.3318 16.5894L26.7324 17.1887C26.6904 17.2307 26.6667 17.2877 26.6667 17.3472C26.6667 17.4066 26.6902 17.4636 26.7323 17.5057C26.7743 17.5478 26.8313 17.5714 26.8907 17.5714C26.9502 17.5715 27.0072 17.5479 27.0492 17.5059L27.6486 16.9066C27.6694 16.8858 27.6859 16.861 27.6972 16.8339C27.7085 16.8067 27.7143 16.7775 27.7143 16.7481C27.7143 16.7187 27.7085 16.6895 27.6973 16.6623C27.686 16.6351 27.6695 16.6104 27.6487 16.5896C27.6279 16.5687 27.6032 16.5522 27.576 16.5409C27.5489 16.5296 27.5197 16.5238 27.4903 16.5238C27.4608 16.5238 27.4317 16.5296 27.4045 16.5408C27.3773 16.5521 27.3526 16.5686 27.3318 16.5894V16.5894Z" fill="#DB4242"/>
<path d="M17.9032 25.036L17.3037 26.2349C17.2829 26.2765 17.2664 26.3259 17.2552 26.3803C17.2439 26.4347 17.2381 26.493 17.2381 26.5518C17.2381 26.6107 17.2439 26.6689 17.2552 26.7233C17.2664 26.7777 17.2829 26.8271 17.3037 26.8687C17.3245 26.9103 17.3492 26.9434 17.3764 26.9659C17.4036 26.9884 17.4328 27 17.4622 27C17.4916 27 17.5208 26.9884 17.5479 26.9659C17.5751 26.9434 17.5998 26.9103 17.6206 26.8687L18.2201 25.6698C18.2409 25.6282 18.2574 25.5788 18.2687 25.5244C18.2799 25.4701 18.2857 25.4118 18.2857 25.3529C18.2857 25.2941 18.2799 25.2358 18.2687 25.1814C18.2574 25.127 18.2409 25.0776 18.2201 25.036C18.1993 24.9944 18.1746 24.9614 18.1474 24.9389C18.1202 24.9163 18.0911 24.9048 18.0616 24.9048C18.0322 24.9048 18.0031 24.9163 17.9759 24.9389C17.9487 24.9614 17.924 24.9944 17.9032 25.036V25.036Z" fill="#DB4242"/>
</svg>
