<svg width="46" height="46" viewBox="0 0 46 46" fill="none" xmlns="http://www.w3.org/2000/svg">
<mask id="mask0" mask-type="alpha" maskUnits="userSpaceOnUse" x="0" y="0" width="46" height="46">
<circle cx="23" cy="23" r="23" fill="#0BCAD4"/>
</mask>
<g mask="url(#mask0)">
<circle cx="23" cy="23" r="23" fill="#0BCAD4"/>
<ellipse cx="24" cy="33.5" rx="9" ry="2.5" fill="#0AA8B0"/>
</g>
<path d="M20.0859 31.7344C21.6545 31.7357 23.2105 31.461 24.6796 30.9233C24.7637 30.8924 24.8407 30.8457 24.9063 30.7858C24.9719 30.7258 25.0248 30.6538 25.062 30.5739C25.0991 30.494 25.1198 30.4076 25.1229 30.3199C25.1259 30.2321 25.1113 30.1446 25.0798 30.0624C25.0483 29.9801 25.0006 29.9048 24.9393 29.8406C24.878 29.7764 24.8044 29.7247 24.7227 29.6883C24.641 29.6519 24.5528 29.6317 24.4631 29.6287C24.3734 29.6257 24.284 29.64 24.1999 29.6708C22.2522 30.3752 20.1503 30.5702 18.102 30.2367C16.0536 29.9032 14.1296 29.0527 12.52 27.7691C17.5412 27.8214 22.4526 25.4996 24.8961 21.7741C26.467 19.3792 26.9805 16.561 26.3818 13.6243C25.9233 11.4946 24.982 9.49286 23.6274 7.7666C26.2138 8.57178 28.4396 10.2206 29.9333 12.4378C31.4271 14.655 32.0983 17.3064 31.835 19.9494C31.8259 20.037 31.8345 20.1255 31.8603 20.2098C31.8861 20.2941 31.9287 20.3725 31.9856 20.4407C32.0425 20.5089 32.1127 20.5654 32.1919 20.607C32.2712 20.6486 32.3581 20.6745 32.4476 20.6831C32.5371 20.6918 32.6275 20.6831 32.7136 20.6576C32.7996 20.632 32.8797 20.5901 32.9492 20.5341C33.0187 20.4782 33.0762 20.4095 33.1184 20.3318C33.1607 20.2541 33.1868 20.169 33.1954 20.0814C33.5275 16.7561 32.532 13.434 30.4175 10.8105C28.3029 8.18708 25.2332 6.46558 21.8508 6.00639C21.7094 5.98712 21.5653 6.01169 21.4389 6.07662C21.3125 6.14155 21.21 6.24359 21.1459 6.36842C21.0818 6.49325 21.0592 6.63459 21.0814 6.7726C21.1036 6.9106 21.1694 7.03834 21.2696 7.13788C24.7655 10.6123 26.8871 16.2619 23.7458 21.0517C21.2674 24.8301 15.9347 26.9913 10.7751 26.3082C10.6367 26.2899 10.4959 26.3135 10.3716 26.3758C10.2473 26.4382 10.1456 26.5363 10.08 26.657C10.0144 26.7777 9.9882 26.9151 10.0049 27.0508C10.0216 27.1864 10.0803 27.3139 10.1733 27.4159C11.4226 28.7768 12.9511 29.8649 14.6591 30.609C16.3671 31.3531 18.2162 31.7366 20.0859 31.7344V31.7344Z" fill="#ECBD2C"/>
<path d="M30.9875 32C31.9789 32 32.948 31.7124 33.7723 31.1735C34.5966 30.6346 35.2391 29.8686 35.6184 28.9725C35.9978 28.0763 36.0971 27.0902 35.9037 26.1389C35.7103 25.1875 35.2329 24.3136 34.5319 23.6278C33.8309 22.9419 32.9377 22.4748 31.9654 22.2855C30.9931 22.0963 29.9852 22.1934 29.0693 22.5646C28.1534 22.9358 27.3705 23.5644 26.8198 24.3709C26.269 25.1775 25.975 26.1257 25.975 27.0956C25.9765 28.3959 26.5051 29.6425 27.4448 30.5619C28.3845 31.4814 29.6586 31.9985 30.9875 32Z" fill="#ECBD2C"/>
</svg>
