<svg width="46" height="46" viewBox="0 0 46 46" fill="none" xmlns="http://www.w3.org/2000/svg">
<mask id="mask0" mask-type="alpha" maskUnits="userSpaceOnUse" x="0" y="0" width="46" height="46">
<circle cx="23" cy="23" r="23" fill="#0BCAD4"/>
</mask>
<g mask="url(#mask0)">
<circle cx="23" cy="23" r="23" fill="#0BCAD4"/>
<ellipse cx="23" cy="36.5" rx="9" ry="2.5" fill="#0AA8B0"/>
</g>
<path d="M18.128 7L9 18.0352L22.5095 33.9211L31.5158 23.371L18.128 7Z" fill="#C63C50"/>
<path d="M9.4895 18.1783C9.6899 17.8157 9.93841 17.4823 10.2282 17.1871L18.5495 8.70927C18.5495 8.70927 21.4487 8.22368 22.0527 9.68045L11.4223 18.421L9.4895 18.1783Z" fill="#F2F2F2"/>
<path d="M9 17.9361L21.3438 36.8344C21.3438 36.8344 22.554 37.6824 23.7642 37.1978L36.4105 28.6572L22.9776 8.30526L10.8758 17.7544L9 17.9361Z" fill="#E06379"/>
<path d="M21.4785 11.2808L13.7265 16.8513L13.841 17.0107L21.593 11.4402L21.4785 11.2808Z" fill="#3F3D56"/>
<path d="M13.6237 18.9362L13.46 19.0445L23.6336 34.4261L23.7973 34.3178L13.6237 18.9362Z" fill="#3F3D56"/>
<path d="M33.1033 28.7204L24.8694 34.7785L24.9857 34.9367L33.2197 28.8785L33.1033 28.7204Z" fill="#3F3D56"/>
<path d="M22.9483 11.5463L22.7872 11.6584L33.3242 26.7977L33.4853 26.6856L22.9483 11.5463Z" fill="#3F3D56"/>
<path d="M19.6935 8.57553L10.1097 17.3713L10.1916 17.4604L19.7754 8.66471L19.6935 8.57553Z" fill="#3F3D56"/>
<path d="M20.4918 8.65092L10.4755 17.4934L10.5557 17.5843L20.572 8.74176L20.4918 8.65092Z" fill="#3F3D56"/>
<path d="M21.1184 8.82715L10.7206 17.4942L10.7982 17.5873L21.196 8.92023L21.1184 8.82715Z" fill="#3F3D56"/>
</svg>
